<svg version="1.1" id="logo" xmlns="http://www.w3.org/2000/svg" xmlns:xlink="http://www.w3.org/1999/xlink" x="0px" y="0px" width="369.079px" height="83.987px" viewBox="0 0 369.079 83.987" enable-background="new 0 0 369.079 83.987" xml:space="preserve">
<g>
	<path class="path" fill="#fff" d="M43.993,0v73.58H24.86V42.675h-5.727V73.58H0V0h19.133v26.314h5.727V0H43.993z"/>
	<path class="path" fill="#fff" d="M92.667,34.449V49.22c0,5.423-0.273,9.4-0.818,11.93s-1.712,4.893-3.5,7.09s-4.083,3.818-6.885,4.863
		c-2.802,1.045-6.021,1.568-9.657,1.568c-4.06,0-7.499-0.447-10.317-1.34c-2.817-0.894-5.007-2.242-6.567-4.045
		c-1.561-1.803-2.674-3.984-3.34-6.544s-1-6.4-1-11.521V35.767c0-5.605,0.606-9.983,1.818-13.134s3.394-5.681,6.544-7.59
		s7.181-2.863,12.089-2.863c4.121,0,7.658,0.614,10.612,1.841s5.234,2.825,6.84,4.795c1.605,1.969,2.704,3.999,3.295,6.09
		C92.372,26.996,92.667,30.177,92.667,34.449z M74.307,29.904c0-3.09-0.167-5.037-0.5-5.84s-1.045-1.205-2.136-1.205
		c-1.09,0-1.818,0.402-2.181,1.205c-0.364,0.803-0.545,2.75-0.545,5.84v27.223c0,2.848,0.182,4.704,0.545,5.567
		c0.363,0.863,1.076,1.295,2.136,1.295c1.091,0,1.811-0.394,2.159-1.182c0.349-0.788,0.523-2.485,0.523-5.09V29.904z"/>
	<path class="path" fill="#fff" d="M140.433,13.271v46.447c0,6.272-0.144,10.324-0.432,12.157c-0.288,1.833-1.311,3.772-3.068,5.817
		s-4.204,3.605-7.34,4.681s-7.082,1.613-11.839,1.613c-5.848,0-10.544-0.992-14.089-2.977c-3.545-1.985-5.378-5.886-5.499-11.703
		h17.815c0,2.667,0.969,4,2.909,4c1.394,0,2.318-0.409,2.772-1.228c0.455-0.819,0.682-2.533,0.682-5.141v-4.549
		c-1.576,1.427-3.234,2.506-4.977,3.234c-1.742,0.729-3.568,1.094-5.477,1.094c-3.303,0-6.022-0.667-8.158-2
		c-2.136-1.333-3.598-3.083-4.386-5.25c-0.788-2.166-1.182-5.249-1.182-9.249V28.314c0-5.727,1.03-9.847,3.09-12.362
		c2.061-2.515,5.196-3.772,9.408-3.772c2.303,0,4.401,0.471,6.294,1.412s3.583,2.353,5.067,4.234l1.318-4.556H140.433z
		 M122.026,29.268c0-2.757-0.159-4.514-0.477-5.272c-0.318-0.757-1.023-1.136-2.113-1.136c-1.061,0-1.811,0.432-2.25,1.295
		c-0.439,0.864-0.659,2.568-0.659,5.113v20.27c0,2.697,0.167,4.446,0.5,5.25c0.333,0.803,1.03,1.204,2.09,1.204
		c1.212,0,2-0.485,2.363-1.454c0.364-0.97,0.545-3.167,0.545-6.59V29.268z"/>
	<path class="path" fill="#fff" d="M188.562,44.493h-23.769v13.043c0,2.727,0.197,4.484,0.591,5.272c0.394,0.788,1.151,1.182,2.272,1.182
		c1.394,0,2.325-0.523,2.795-1.568c0.47-1.045,0.705-3.067,0.705-6.067v-7.954h17.406v4.454c0,3.727-0.235,6.59-0.705,8.589
		c-0.47,2-1.568,4.136-3.295,6.408s-3.916,3.977-6.567,5.113c-2.651,1.136-5.977,1.704-9.976,1.704
		c-3.878,0-7.302-0.561-10.271-1.681c-2.969-1.121-5.279-2.659-6.931-4.613c-1.651-1.954-2.795-4.105-3.431-6.453
		c-0.636-2.348-0.955-5.765-0.955-10.249V34.085c0-5.272,0.712-9.43,2.136-12.475c1.424-3.045,3.757-5.378,6.999-6.999
		c3.242-1.621,6.969-2.432,11.18-2.432c5.151,0,9.4,0.978,12.748,2.932s5.696,4.545,7.044,7.771s2.022,7.764,2.022,13.611V44.493z
		 M170.155,34.676v-4.408c0-3.121-0.167-5.136-0.5-6.044c-0.333-0.909-1.015-1.364-2.045-1.364c-1.273,0-2.061,0.387-2.363,1.159
		c-0.303,0.772-0.455,2.855-0.455,6.249v4.408H170.155z"/>
	<path class="path" fill="#fff" d="M195.106,0h32.404v14.725h-13.271v13.952h11.816v13.998h-11.816V73.58h-19.133V0z"/>
	<path class="path" fill="#fff" d="M273.639,13.271V73.58H254.96l0.318-5.01c-1.272,2.033-2.84,3.559-4.704,4.575
		c-1.863,1.017-4.007,1.525-6.431,1.525c-2.757,0-5.044-0.484-6.862-1.454s-3.159-2.257-4.022-3.863
		c-0.863-1.606-1.401-3.28-1.613-5.022s-0.318-5.204-0.318-10.385V13.271h18.36V54.31c0,4.696,0.144,7.484,0.432,8.362
		c0.288,0.879,1.068,1.318,2.34,1.318c1.363,0,2.174-0.455,2.432-1.364c0.257-0.909,0.386-3.833,0.386-8.771V13.271H273.639z"/>
	<path class="path" fill="#fff" d="M321.95,13.271v46.447c0,6.272-0.144,10.324-0.432,12.157c-0.288,1.833-1.311,3.772-3.068,5.817
		s-4.204,3.605-7.34,4.681s-7.082,1.613-11.839,1.613c-5.848,0-10.544-0.992-14.089-2.977c-3.545-1.985-5.378-5.886-5.499-11.703
		h17.815c0,2.667,0.969,4,2.909,4c1.394,0,2.318-0.409,2.772-1.228c0.455-0.819,0.682-2.533,0.682-5.141v-4.549
		c-1.575,1.427-3.234,2.506-4.976,3.234c-1.742,0.729-3.568,1.094-5.477,1.094c-3.303,0-6.022-0.667-8.158-2
		c-2.136-1.333-3.598-3.083-4.386-5.25c-0.788-2.166-1.182-5.249-1.182-9.249V28.314c0-5.727,1.03-9.847,3.09-12.362
		s5.196-3.772,9.408-3.772c2.303,0,4.401,0.471,6.294,1.412s3.583,2.353,5.067,4.234l1.318-4.556H321.95z M303.543,29.268
		c0-2.757-0.159-4.514-0.477-5.272c-0.318-0.757-1.023-1.136-2.113-1.136c-1.061,0-1.811,0.432-2.25,1.295
		c-0.439,0.864-0.659,2.568-0.659,5.113v20.27c0,2.697,0.167,4.446,0.5,5.25c0.333,0.803,1.03,1.204,2.09,1.204
		c1.212,0,2-0.485,2.363-1.454c0.364-0.97,0.545-3.167,0.545-6.59V29.268z"/>
	<path class="path" fill="#fff" d="M344.9,36.631h-17.225v-4.045c0-4.666,0.538-8.264,1.614-10.794s3.234-4.764,6.476-6.704
		c3.242-1.939,7.454-2.909,12.634-2.909c6.211,0,10.893,1.099,14.043,3.295c3.151,2.197,5.044,4.894,5.681,8.09
		c0.637,3.196,0.955,9.779,0.955,19.747V73.58h-17.861v-5.374c-1.121,2.155-2.568,3.771-4.34,4.848
		c-1.772,1.078-3.886,1.616-6.34,1.616c-3.211,0-6.158-0.901-8.839-2.704c-2.682-1.803-4.022-5.749-4.022-11.839v-4.954
		c0-4.515,0.712-7.59,2.136-9.226s4.954-3.545,10.589-5.726c6.029-2.363,9.256-3.954,9.68-4.772c0.424-0.818,0.636-2.485,0.636-5
		c0-3.151-0.235-5.204-0.704-6.158c-0.47-0.954-1.25-1.432-2.341-1.432c-1.242,0-2.015,0.402-2.318,1.205
		c-0.303,0.803-0.455,2.886-0.455,6.249V36.631z M350.718,44.902c-2.939,2.151-4.643,3.954-5.113,5.409
		c-0.47,1.454-0.705,3.544-0.705,6.271c0,3.121,0.205,5.136,0.614,6.044c0.409,0.909,1.219,1.364,2.431,1.364
		c1.151,0,1.901-0.356,2.25-1.068c0.348-0.712,0.522-2.583,0.522-5.613V44.902z"/>
</g>
</svg>